<svg xmlns="http://www.w3.org/2000/svg" viewBox="0 0 442.69 428.4"><defs><style>.cls-1{isolation:isolate;}.cls-2{fill:#fff;fill-rule:evenodd;}.cls-3{opacity:0.85;mix-blend-mode:multiply;}.cls-4{font-size:42.47px;fill:#00415e;stroke:#00415e;stroke-miterlimit:10;font-family:Coco Gothic;}</style></defs><title>logo</title><g class="cls-1"><g id="Слой_1" data-name="Слой 1"><path class="cls-2" d="M339.91,477.44c0,1.17-1.29,2.12-2.89,2.12H273.77c-1.6,0-2.89-.95-2.89-2.12V465.76c0-1.17,1.29-2.12,2.89-2.12H337c1.59,0,2.89.95,2.89,2.12v11.68Z" transform="translate(-96.5 -173.62)"/><path class="cls-2" d="M375.8,502.72c0,1.17-2,2.12-4.39,2.12H275.27c-2.42,0-4.39-.95-4.39-2.12V491c0-1.17,2-2.12,4.39-2.12h96.14c2.43,0,4.39.95,4.39,2.12v11.68Z" transform="translate(-96.5 -173.62)"/><path class="cls-2" d="M366.4,575.1c0,1.17-1.61,2.12-3.6,2.12h-78.9c-2,0-3.6-.95-3.6-2.12V563.43c0-1.17,1.61-2.12,3.6-2.12h78.9c2,0,3.6.95,3.6,2.12V575.1Z" transform="translate(-96.5 -173.62)"/><path class="cls-2" d="M347.73,599.9a2.1,2.1,0,0,1-2.08,2.12H300.21a2.1,2.1,0,0,1-2.08-2.12V588.22a2.1,2.1,0,0,1,2.08-2.12h45.45a2.1,2.1,0,0,1,2.08,2.12V599.9Z" transform="translate(-96.5 -173.62)"/><path class="cls-2" d="M266.06,300.77c1.2-2.67,2.31-5.32,3.63-7.86a2.39,2.39,0,0,1,2.06-.46c6.85,1.67,13.29-2.6,13.79-9.62,0.17-2.45-.86-5-1.46-8.12l7.23-5.39c3.74,4.26,8.18,5.94,13.43,3.73,4.81-2,6.73-6,6.67-11.5l9.66-1c1.18,5.41,4,9.06,9.5,9.84s9.14-1.78,11.79-6.62l9,4c-2.08,5.42-1.43,10,3.35,13.41,4.33,3.1,8.73,2.87,13.32,0l5.84,7.93c-4.26,3.68-5.9,8.08-3.79,13.25,2,4.9,6,7,11.55,6.73l1,9.72c-5.62,1.3-9.29,4.29-9.88,10-0.53,5.1,1.93,8.71,6.67,11.28l-3.9,8.92c-5.77-1.81-10.65-.87-14,4.27-2.65,4.06-2.17,8.22.52,12.5l-7.85,5.85c-3.91-4.37-8.47-6-13.86-3.57-4.05,1.79-5.86,5.14-6.29,11.34l-9.58,1.09c-1.25-5.55-4.21-9.28-9.91-9.93-5.19-.59-8.83,1.95-11.41,6.68l-8.92-3.93c1.76-5.45.94-10.07-3.58-13.57-3.66-2.83-7.61-2.8-13.26,0l-5.75-7.8c4.17-3.68,5.88-8,3.84-13.11s-6.08-7.06-11.6-6.93l-1.11-9.65c5.65-1.26,9.42-4.31,10-10.21C273.23,307.34,271.26,304.16,266.06,300.77Zm23,19.51A33.67,33.67,0,1,0,323,286.75,33.62,33.62,0,0,0,289.1,320.29Z" transform="translate(-96.5 -173.62)"/><path class="cls-2" d="M287.71,443l-5.06,3.7c-2.34-2.55-5-3.76-8.28-2.49s-4.52,3.9-4.52,7.44l-6.1.7c-0.22-.63-0.39-1.13-0.57-1.63a6.66,6.66,0,0,0-5.4-4.62,6.14,6.14,0,0,0-6.57,2.6c-1,1.54-1.93,1.38-3.21.73s-2.36-1.12-3.62-1.72c1.1-3.65.42-6.62-2.7-8.9a6.24,6.24,0,0,0-6.11-.67c-2,.77-2.81,0-3.68-1.37-0.52-.82-1-1.66-1.5-2.48,4.54-6.94,2.5-12.14-5.41-13.07l-0.72-5.78c7.67-4,8.6-9.49,2.18-13.9,0.34-.86.69-1.8,1.08-2.72s0.87-1.88,1.37-2.94c3.45,1,6.54.62,8.72-2.48,1.83-2.62,1.59-5.34-.16-8.23l4.51-3.36c2.18,1,3.9,2.12,5.76,2.46,3.65,0.68,7.07-2.26,7.41-6.15,0.12-1.33.56-1.84,1.83-1.91,1.45-.08,2.89-0.28,4.29-0.42,3.74,7.81,8.78,8.6,14,2.11l5.53,2.44c-1.06,3.53-.58,6.6,2.49,8.76,2.61,1.84,5.34,1.58,8.23-.16l3.67,4.93c-5.35,5-2.87,12.78,5,13l0.71,5.84c-7.73,3.74-8.65,9.35-2.14,13.89l-2.45,5.64c-3.5-1.1-6.51-.6-8.67,2.35C285.7,437.23,285.95,440,287.71,443Zm-25.21-7.53a21.45,21.45,0,1,0-21.38-21.55A21.43,21.43,0,0,0,262.5,435.44Z" transform="translate(-96.5 -173.62)"/><path class="cls-2" d="M414.93,212.28l1.66,2.93c-0.43.61-.95,1.24-1.34,1.94-1.61,2.81-.55,6.78,2.53,7.42,3.41,0.71,3.4,2.69,3.21,5.19-5.75,2.38-6.31,7.49-1.47,11a26.4,26.4,0,0,1-1.4,3.1,2.1,2.1,0,0,1-1.46.92c-6,.16-7.94,2.87-5.89,8.68l-3.53,2.69c-0.78-.54-1.42-1.07-2.12-1.46a5.21,5.21,0,0,0-7.73,3.27c-0.35,1.39-.57,2.51-2.4,2.48-1.49,0-2.66.27-3.48-1.7-1.45-3.49-5.89-4.05-8.57-1.37-0.46.46-.86,1-1.38,1.61a27.41,27.41,0,0,1-3.18-1.44,2,2,0,0,1-.85-1.46c0.26-5.66-3-7.93-8.68-5.82l-2.7-3.62c0.44-.59.85-1.09,1.21-1.62a5.18,5.18,0,0,0-3.24-8.19,2.37,2.37,0,0,1-2.27-2.62c-0.08-1.3-.35-2.36,1.48-3.11,4.32-1.79,4.3-6.34,0-10.12l1.72-4c6.17,1,9.39-3.16,7-8.66l3.46-2.65c5.2,4.08,9.76,1.74,10.45-4l4.28-.57c2.45,6,7.56,6.56,11,1.72,0.86,0.34,1.76.72,2.68,1.05,1.17,0.43,1.55,1.06,1.38,2.45-0.5,4.19,3,6.91,7.08,5.83a8.06,8.06,0,0,1,2.64.21ZM408,230.82a16.63,16.63,0,1,0-16.68,16.69A16.57,16.57,0,0,0,408,230.82Z" transform="translate(-96.5 -173.62)"/><path class="cls-2" d="M324.43,246.64c-0.11-1.54-.5-2.94,1.31-4.17,0.76-.51.88-2.94,0.38-4.11-1-2.31-.91-3,1.46-3.43s3.32-1.57,3-3.93c-0.28-2.11.64-3,2.68-2.14,2.28,1,3.83.49,4.82-1.79,0.87-2,2.08-2.26,3.38-.44,1.45,2,3,2.38,5,.84,1.78-1.34,2.83-.79,3.11,1.41,0.3,2.41,1.62,3.52,4.11,3.13,2.15-.34,2.8.85,2,2.57-1.12,2.45-.54,3.91,1.88,5,1.76,0.79,2.22,2.06.37,3.31-2.08,1.39-2.42,3-.94,5,1.3,1.82.78,3-1.5,3.24s-3.22,1.59-3,3.88-0.85,2.86-2.92,2-3.55-.39-4.41,1.63c-1.06,2.5-2.19,2.54-3.76.41-1.28-1.74-2.88-1.87-4.68-.65-2,1.38-2.92.94-3.34-1.62-0.36-2.16-1.6-3.07-3.76-2.88s-3-.77-2.19-2.75c1.12-2.94.18-4.34-3.14-4.63Zm17,6.07a9.72,9.72,0,1,0-9.69-9.73A9.75,9.75,0,0,0,341.48,252.71Z" transform="translate(-96.5 -173.62)"/><path class="cls-2" d="M322.72,350a29.61,29.61,0,1,1,29.65-29.57A29.64,29.64,0,0,1,322.72,350Zm-0.26-14.11a15.51,15.51,0,1,0-15.2-15.85A15.47,15.47,0,0,0,322.47,335.93Z" transform="translate(-96.5 -173.62)"/><path class="cls-2" d="M281.47,414.1a18.89,18.89,0,1,1-18.82-19A18.79,18.79,0,0,1,281.47,414.1Zm-18.77-10a9.89,9.89,0,1,0,9.78,9.91A10,10,0,0,0,262.7,404.14Z" transform="translate(-96.5 -173.62)"/><path class="cls-2" d="M406.1,231.05a14.67,14.67,0,1,1-14.43-14.85A14.58,14.58,0,0,1,406.1,231.05Zm-14.54-7.8A7.62,7.62,0,1,0,399,231,7.53,7.53,0,0,0,391.55,223.26Z" transform="translate(-96.5 -173.62)"/><path class="cls-2" d="M341.57,234.36a8.46,8.46,0,0,1,8.49,8.56,8.63,8.63,0,0,1-8.73,8.71,8.86,8.86,0,0,1-8.58-8.65A8.66,8.66,0,0,1,341.57,234.36Zm4.29,8.72a4.34,4.34,0,0,0-4.14-4.53,4.53,4.53,0,0,0-4.77,4.28,4.68,4.68,0,0,0,4.52,4.62A4.47,4.47,0,0,0,345.86,243.08Z" transform="translate(-96.5 -173.62)"/><g class="cls-3"><path class="cls-2" d="M317.54,241.33l-5.06,3.7c-2.34-2.55-5-3.76-8.28-2.49s-4.52,3.9-4.52,7.44l-6.1.7c-0.22-.63-0.39-1.13-0.57-1.63a6.66,6.66,0,0,0-5.4-4.62A6.14,6.14,0,0,0,281,247c-1,1.54-1.93,1.37-3.21.73s-2.36-1.12-3.62-1.72c1.1-3.65.42-6.63-2.7-8.91a6.24,6.24,0,0,0-6.11-.67c-2,.77-2.81,0-3.68-1.37-0.52-.82-1-1.66-1.5-2.49,4.54-6.94,2.5-12.14-5.41-13.07l-0.71-5.78c7.67-4,8.6-9.49,2.18-13.91,0.34-.86.69-1.8,1.08-2.72s0.87-1.88,1.37-2.94c3.45,1,6.54.62,8.72-2.48,1.83-2.62,1.59-5.34-.16-8.23l4.51-3.36c2.18,1,3.9,2.12,5.76,2.46,3.65,0.68,7.07-2.26,7.41-6.15,0.12-1.33.56-1.84,1.83-1.91,1.45-.08,2.89-0.28,4.29-0.42,3.74,7.81,8.78,8.59,14,2.11l5.53,2.44c-1.06,3.53-.59,6.6,2.49,8.76,2.61,1.84,5.34,1.58,8.23-.16L325,192.2c-5.35,5-2.87,12.78,5,13,0.24,1.94.48,3.92,0.71,5.84-7.73,3.74-8.65,9.35-2.14,13.9l-2.45,5.64c-3.5-1.1-6.51-.6-8.67,2.35C315.52,235.59,315.77,238.39,317.54,241.33Zm-25.21-7.52a21.45,21.45,0,1,0-21.38-21.55A21.43,21.43,0,0,0,292.33,233.8Z" transform="translate(-96.5 -173.62)"/></g><path class="cls-2" d="M317,240.83l-5.06,3.7c-2.34-2.55-5-3.76-8.28-2.49s-4.52,3.9-4.52,7.44l-6.1.7c-0.22-.63-0.39-1.13-0.57-1.64a6.66,6.66,0,0,0-5.4-4.62,6.14,6.14,0,0,0-6.57,2.6c-1,1.54-1.93,1.37-3.21.73s-2.36-1.12-3.62-1.72c1.1-3.65.42-6.63-2.7-8.91a6.24,6.24,0,0,0-6.11-.67c-2,.77-2.81,0-3.68-1.37-0.52-.82-1-1.66-1.5-2.49,4.54-6.94,2.5-12.14-5.41-13.07l-0.71-5.78c7.67-4,8.6-9.49,2.18-13.91,0.34-.86.69-1.8,1.09-2.72s0.87-1.88,1.37-2.94c3.45,1,6.54.62,8.72-2.48,1.83-2.62,1.59-5.34-.16-8.23l4.51-3.36c2.18,1,3.9,2.12,5.76,2.47,3.65,0.68,7.07-2.26,7.41-6.15,0.12-1.33.56-1.84,1.83-1.91,1.45-.08,2.89-0.28,4.29-0.42,3.74,7.81,8.78,8.59,14,2.11l5.53,2.44c-1.06,3.53-.59,6.6,2.49,8.76,2.61,1.84,5.34,1.58,8.23-.16l3.67,4.93c-5.35,5-2.87,12.78,5,13l0.71,5.84c-7.73,3.74-8.65,9.35-2.14,13.89l-2.45,5.64c-3.5-1.1-6.51-.6-8.67,2.35C315,235.09,315.27,237.89,317,240.83Zm-25.21-7.52a21.45,21.45,0,1,0-21.38-21.55A21.43,21.43,0,0,0,291.83,233.31Z" transform="translate(-96.5 -173.62)"/><g class="cls-3"><path class="cls-2" d="M311.29,212.46a18.89,18.89,0,1,1-18.82-19A18.79,18.79,0,0,1,311.29,212.46Zm-18.77-10a9.89,9.89,0,1,0,9.78,9.91A10,10,0,0,0,292.52,202.5Z" transform="translate(-96.5 -173.62)"/></g><path class="cls-2" d="M310.8,212a18.89,18.89,0,1,1-18.82-19A18.79,18.79,0,0,1,310.8,212ZM292,202a9.89,9.89,0,1,0,9.78,9.91A10,10,0,0,0,292,202Z" transform="translate(-96.5 -173.62)"/><g class="cls-3"><path class="cls-2" d="M433.07,353l1.66,2.93c-0.43.61-.94,1.24-1.35,1.94-1.6,2.81-.55,6.78,2.53,7.42,3.41,0.71,3.4,2.69,3.21,5.19-5.75,2.37-6.31,7.48-1.47,11a26,26,0,0,1-1.39,3.1,2.09,2.09,0,0,1-1.46.92c-6,.16-7.94,2.87-5.9,8.68l-3.53,2.69c-0.78-.54-1.42-1.07-2.12-1.46a5.21,5.21,0,0,0-7.73,3.27c-0.35,1.4-.57,2.51-2.4,2.48-1.49,0-2.66.27-3.48-1.7-1.45-3.5-5.89-4.05-8.57-1.37-0.46.46-.86,1-1.38,1.61a27.09,27.09,0,0,1-3.18-1.44,2,2,0,0,1-.85-1.46c0.26-5.66-3-7.93-8.68-5.82l-2.7-3.62c0.44-.59.85-1.09,1.21-1.62a5.18,5.18,0,0,0-3.24-8.19c-1.77-.32-2.18-1.18-2.27-2.62s-0.35-2.36,1.48-3.11c4.32-1.79,4.31-6.34,0-10.12l1.72-4c6.17,1,9.39-3.16,7-8.66l3.46-2.65c5.21,4.08,9.76,1.74,10.45-4l4.28-.57c2.45,6,7.56,6.56,11,1.72,0.86,0.34,1.76.72,2.68,1.05,1.17,0.43,1.55,1.06,1.38,2.45-0.5,4.19,3,6.91,7.07,5.83a8.06,8.06,0,0,1,2.64.21Zm-6.89,18.53a16.63,16.63,0,1,0-16.68,16.69A16.57,16.57,0,0,0,426.18,371.55Z" transform="translate(-96.5 -173.62)"/></g><path class="cls-2" d="M432.57,352.52l1.65,2.93c-0.42.61-.94,1.24-1.35,1.94-1.6,2.81-.55,6.78,2.54,7.42,3.41,0.71,3.4,2.69,3.21,5.19-5.75,2.38-6.31,7.49-1.47,11a26.14,26.14,0,0,1-1.39,3.09,2.09,2.09,0,0,1-1.46.92c-6,.16-7.94,2.87-5.9,8.68l-3.53,2.69c-0.78-.54-1.42-1.07-2.12-1.47a5.21,5.21,0,0,0-7.73,3.27c-0.35,1.4-.57,2.51-2.4,2.48-1.49,0-2.67.27-3.48-1.7-1.45-3.5-5.89-4.05-8.57-1.37-0.46.46-.86,1-1.38,1.61a27.42,27.42,0,0,1-3.18-1.44,2,2,0,0,1-.85-1.46c0.26-5.66-3-7.93-8.68-5.82l-2.7-3.62c0.44-.59.85-1.09,1.21-1.62a5.18,5.18,0,0,0-3.24-8.19,2.37,2.37,0,0,1-2.27-2.62c-0.08-1.3-.35-2.36,1.48-3.11,4.32-1.79,4.3-6.34,0-10.12l1.72-4c6.17,1,9.39-3.16,7-8.66l3.46-2.65c5.21,4.08,9.76,1.74,10.45-4l4.28-.57c2.45,6,7.56,6.56,11,1.72,0.86,0.34,1.76.72,2.68,1.05,1.17,0.43,1.55,1.06,1.38,2.45-0.5,4.19,3,6.91,7.07,5.83a8.07,8.07,0,0,1,2.64.21ZM425.69,371A16.63,16.63,0,1,0,409,387.73,16.57,16.57,0,0,0,425.69,371Z" transform="translate(-96.5 -173.62)"/><g class="cls-3"><path class="cls-2" d="M424.24,371.78a14.67,14.67,0,1,1-14.43-14.85A14.58,14.58,0,0,1,424.24,371.78ZM409.69,364a7.62,7.62,0,1,0,7.47,7.75A7.53,7.53,0,0,0,409.69,364Z" transform="translate(-96.5 -173.62)"/></g><path class="cls-2" d="M423.74,371.29a14.67,14.67,0,1,1-14.43-14.85A14.58,14.58,0,0,1,423.74,371.29Zm-14.54-7.8a7.62,7.62,0,1,0,7.47,7.75A7.53,7.53,0,0,0,409.2,363.49Z" transform="translate(-96.5 -173.62)"/><g class="cls-3"><path class="cls-2" d="M254.26,332l1.65,2.93c-0.43.61-.94,1.24-1.34,1.95-1.61,2.81-.55,6.78,2.53,7.42,3.41,0.71,3.4,2.69,3.21,5.19-5.75,2.38-6.31,7.48-1.48,11a26.37,26.37,0,0,1-1.39,3.1,2.09,2.09,0,0,1-1.46.92c-6,.16-7.94,2.87-5.9,8.68l-3.53,2.69c-0.78-.54-1.42-1.07-2.12-1.46a5.21,5.21,0,0,0-7.73,3.27c-0.35,1.39-.57,2.51-2.4,2.48-1.49,0-2.66.27-3.48-1.7-1.45-3.5-5.89-4.05-8.57-1.37-0.46.46-.86,1-1.38,1.61a27,27,0,0,1-3.18-1.44,2,2,0,0,1-.85-1.46c0.26-5.66-3-7.93-8.68-5.82l-2.7-3.62c0.44-.59.85-1.09,1.21-1.62a5.18,5.18,0,0,0-3.23-8.19c-1.77-.32-2.18-1.17-2.27-2.62-0.08-1.3-.35-2.36,1.48-3.11,4.32-1.79,4.3-6.34,0-10.12l1.72-4c6.17,1,9.39-3.16,7-8.66l3.46-2.65c5.21,4.08,9.76,1.74,10.45-4l4.28-.57c2.45,6,7.56,6.56,11,1.72,0.86,0.34,1.76.72,2.68,1.05,1.18,0.43,1.55,1.06,1.38,2.45-0.5,4.19,3,6.91,7.07,5.83a8.09,8.09,0,0,1,2.64.21Zm-6.89,18.53a16.63,16.63,0,1,0-16.68,16.69A16.57,16.57,0,0,0,247.37,350.57Z" transform="translate(-96.5 -173.62)"/></g><path class="cls-2" d="M253.77,331.54l1.66,2.93c-0.43.61-.94,1.24-1.35,1.94-1.6,2.81-.55,6.78,2.53,7.42,3.41,0.71,3.4,2.69,3.21,5.19-5.75,2.38-6.31,7.49-1.48,11a26.3,26.3,0,0,1-1.39,3.1,2.09,2.09,0,0,1-1.46.92c-6,.16-7.94,2.87-5.9,8.68l-3.53,2.69c-0.78-.54-1.42-1.07-2.12-1.47a5.21,5.21,0,0,0-7.73,3.27c-0.35,1.39-.57,2.51-2.4,2.48-1.49,0-2.66.27-3.48-1.7-1.45-3.49-5.89-4.05-8.57-1.37-0.46.46-.86,1-1.38,1.61a27.36,27.36,0,0,1-3.18-1.44,2,2,0,0,1-.85-1.46c0.26-5.66-3-7.93-8.68-5.82L205,365.9c0.44-.59.85-1.09,1.21-1.62a5.18,5.18,0,0,0-3.24-8.19c-1.77-.32-2.18-1.17-2.27-2.62-0.08-1.3-.35-2.35,1.48-3.11,4.32-1.79,4.3-6.34,0-10.12l1.72-4c6.17,1,9.39-3.16,7-8.66l3.46-2.65c5.21,4.08,9.76,1.74,10.45-4l4.28-.57c2.45,6,7.56,6.56,11,1.72,0.86,0.34,1.76.72,2.68,1.05,1.17,0.43,1.55,1.06,1.38,2.45-0.5,4.19,3,6.91,7.07,5.83a8.08,8.08,0,0,1,2.64.21Zm-6.89,18.53a16.63,16.63,0,1,0-16.68,16.68A16.57,16.57,0,0,0,246.88,350.08Z" transform="translate(-96.5 -173.62)"/><g class="cls-3"><path class="cls-2" d="M245.43,350.81A14.67,14.67,0,1,1,231,336,14.58,14.58,0,0,1,245.43,350.81ZM230.88,343a7.62,7.62,0,1,0,7.47,7.75A7.53,7.53,0,0,0,230.88,343Z" transform="translate(-96.5 -173.62)"/></g><path class="cls-2" d="M244.93,350.31a14.67,14.67,0,1,1-14.43-14.85A14.58,14.58,0,0,1,244.93,350.31Zm-14.54-7.8a7.62,7.62,0,1,0,7.47,7.75A7.53,7.53,0,0,0,230.39,342.52Z" transform="translate(-96.5 -173.62)"/><g class="cls-3"><path class="cls-2" d="M328.87,424.65l0.61,1.09c-0.16.23-.35,0.46-0.5,0.72a1.84,1.84,0,0,0,.94,2.75c1.26,0.26,1.26,1,1.19,1.93-2.13.88-2.34,2.78-.55,4.07a9.73,9.73,0,0,1-.52,1.15,0.77,0.77,0,0,1-.54.34c-2.23.06-2.94,1.06-2.19,3.22l-1.31,1c-0.29-.2-0.52-0.4-0.79-0.54a1.93,1.93,0,0,0-2.87,1.21c-0.13.52-.21,0.93-0.89,0.92a1,1,0,0,1-1.29-.63,1.92,1.92,0,0,0-3.18-.51c-0.17.17-.32,0.37-0.51,0.6a9.68,9.68,0,0,1-1.18-.54,0.73,0.73,0,0,1-.31-0.54c0.1-2.1-1.11-2.94-3.22-2.16l-1-1.34c0.16-.22.31-0.4,0.45-0.6a1.92,1.92,0,0,0-1.2-3,1.17,1.17,0,0,1-.29-2.13c1.6-.66,1.6-2.35,0-3.75l0.64-1.47c2.29,0.37,3.48-1.17,2.58-3.21l1.28-1c1.93,1.51,3.62.65,3.87-1.48l1.59-.21c0.91,2.22,2.8,2.43,4.08.64l1,0.39a0.71,0.71,0,0,1,.51.91,2,2,0,0,0,2.62,2.16,3,3,0,0,1,1,.08Zm-2.55,6.87a6.16,6.16,0,1,0-6.19,6.19A6.14,6.14,0,0,0,326.31,431.52Z" transform="translate(-96.5 -173.62)"/></g><path class="cls-2" d="M328.37,424.15l0.61,1.09c-0.16.23-.35,0.46-0.5,0.72a1.84,1.84,0,0,0,.94,2.75c1.26,0.26,1.26,1,1.19,1.92-2.14.88-2.34,2.78-.55,4.07a9.56,9.56,0,0,1-.52,1.15,0.77,0.77,0,0,1-.54.34c-2.23.06-2.94,1.06-2.19,3.22l-1.31,1c-0.29-.2-0.53-0.4-0.79-0.54a1.93,1.93,0,0,0-2.87,1.22c-0.13.52-.21,0.93-0.89,0.92a1,1,0,0,1-1.29-.63,1.91,1.91,0,0,0-3.18-.51c-0.17.17-.32,0.37-0.51,0.6a10,10,0,0,1-1.18-.54,0.72,0.72,0,0,1-.31-0.54c0.1-2.1-1.11-2.94-3.22-2.16l-1-1.34c0.16-.22.31-0.4,0.45-0.6a1.92,1.92,0,0,0-1.2-3,1.17,1.17,0,0,1-.29-2.13c1.6-.66,1.6-2.35,0-3.75l0.64-1.47c2.29,0.37,3.48-1.17,2.58-3.21l1.28-1c1.93,1.51,3.62.64,3.87-1.48l1.59-.21c0.91,2.22,2.8,2.43,4.08.64l1,0.39a0.71,0.71,0,0,1,.51.91,2,2,0,0,0,2.62,2.16,3,3,0,0,1,1,.08ZM325.82,431a6.16,6.16,0,1,0-6.19,6.19A6.14,6.14,0,0,0,325.82,431Z" transform="translate(-96.5 -173.62)"/><g class="cls-3"><path class="cls-2" d="M325.59,431.61a5.44,5.44,0,1,1-5.35-5.51A5.41,5.41,0,0,1,325.59,431.61Zm-5.39-2.89a2.82,2.82,0,1,0,2.77,2.87A2.79,2.79,0,0,0,320.2,428.72Z" transform="translate(-96.5 -173.62)"/></g><path class="cls-2" d="M325.1,431.11a5.44,5.44,0,1,1-5.35-5.51A5.41,5.41,0,0,1,325.1,431.11Zm-5.39-2.89a2.82,2.82,0,1,0,2.77,2.87A2.79,2.79,0,0,0,319.7,428.22Z" transform="translate(-96.5 -173.62)"/><g class="cls-3"><path class="cls-2" d="M438.73,276.55l1.65,2.93c-0.42.61-.94,1.24-1.34,1.94-1.61,2.81-.55,6.78,2.53,7.42,3.41,0.71,3.4,2.69,3.21,5.19-5.75,2.38-6.31,7.49-1.47,11a26.84,26.84,0,0,1-1.39,3.1,2.1,2.1,0,0,1-1.46.92c-6,.16-7.94,2.87-5.9,8.68L431,320.41c-0.78-.54-1.41-1.07-2.12-1.47a5.21,5.21,0,0,0-7.73,3.27c-0.35,1.39-.57,2.51-2.4,2.48-1.49,0-2.66.27-3.48-1.7-1.45-3.49-5.89-4.05-8.57-1.37-0.46.46-.86,1-1.38,1.61a27.13,27.13,0,0,1-3.18-1.44,2,2,0,0,1-.85-1.46c0.26-5.66-3-7.93-8.68-5.82l-2.7-3.62c0.44-.59.85-1.09,1.21-1.62a5.18,5.18,0,0,0-3.24-8.19c-1.77-.32-2.18-1.18-2.26-2.62s-0.35-2.36,1.48-3.11c4.32-1.79,4.3-6.35,0-10.12l1.72-4c6.17,1,9.39-3.16,7-8.66l3.46-2.65c5.21,4.08,9.76,1.74,10.45-4l4.28-.57c2.45,6,7.56,6.56,11,1.72,0.86,0.34,1.76.72,2.68,1.05,1.17,0.43,1.55,1.06,1.38,2.45-0.5,4.19,3,6.91,7.07,5.83a8.07,8.07,0,0,1,2.64.21Zm-6.89,18.53a16.63,16.63,0,1,0-16.68,16.69A16.57,16.57,0,0,0,431.84,295.08Z" transform="translate(-96.5 -173.62)"/></g><path class="cls-2" d="M438.23,276l1.66,2.93c-0.43.61-.95,1.24-1.35,1.95-1.61,2.81-.55,6.78,2.53,7.42,3.41,0.71,3.4,2.69,3.21,5.19-5.75,2.38-6.31,7.49-1.47,11a26.34,26.34,0,0,1-1.39,3.1,2.1,2.1,0,0,1-1.46.92c-6,.16-7.94,2.87-5.9,8.68l-3.53,2.69c-0.78-.54-1.41-1.07-2.12-1.47a5.21,5.21,0,0,0-7.73,3.27c-0.35,1.39-.57,2.51-2.4,2.48-1.49,0-2.67.27-3.48-1.7-1.45-3.49-5.89-4.05-8.57-1.37-0.46.46-.85,1-1.38,1.61a27.13,27.13,0,0,1-3.18-1.44,2,2,0,0,1-.85-1.46c0.26-5.66-3-7.93-8.68-5.82l-2.7-3.62c0.44-.59.85-1.09,1.21-1.62a5.18,5.18,0,0,0-3.24-8.19,2.36,2.36,0,0,1-2.27-2.62c-0.08-1.3-.35-2.36,1.48-3.11,4.32-1.79,4.31-6.34,0-10.12l1.72-4c6.17,1,9.39-3.16,7-8.66l3.46-2.65c5.21,4.08,9.76,1.74,10.45-4l4.28-.57c2.45,6,7.56,6.56,11,1.72,0.86,0.34,1.76.72,2.68,1.05,1.17,0.43,1.55,1.06,1.38,2.45-0.5,4.19,3,6.91,7.07,5.83a8.1,8.1,0,0,1,2.64.21Zm-6.89,18.53a16.63,16.63,0,1,0-16.68,16.69A16.57,16.57,0,0,0,431.34,294.58Z" transform="translate(-96.5 -173.62)"/><g class="cls-3"><path class="cls-2" d="M429.55,295.45a14.67,14.67,0,1,1-14.43-14.85A14.58,14.58,0,0,1,429.55,295.45ZM415,287.65a7.62,7.62,0,1,0,7.47,7.75A7.53,7.53,0,0,0,415,287.65Z" transform="translate(-96.5 -173.62)"/></g><path class="cls-2" d="M429.06,295a14.67,14.67,0,1,1-14.43-14.85A14.58,14.58,0,0,1,429.06,295Zm-14.54-7.8a7.62,7.62,0,1,0,7.47,7.75A7.53,7.53,0,0,0,414.52,287.16Z" transform="translate(-96.5 -173.62)"/><g class="cls-3"><path class="cls-2" d="M269.69,263.59l1.22,2.15c-0.31.45-.69,0.91-1,1.43-1.18,2.06-.4,5,1.86,5.45,2.5,0.52,2.5,2,2.36,3.81-4.22,1.74-4.63,5.5-1.08,8.07a19.22,19.22,0,0,1-1,2.27,1.54,1.54,0,0,1-1.07.68c-4.41.12-5.83,2.11-4.33,6.37l-2.59,2c-0.57-.4-1-0.78-1.56-1.08a3.82,3.82,0,0,0-5.68,2.4c-0.26,1-.42,1.85-1.76,1.82-1.1,0-2,.2-2.56-1.25a3.79,3.79,0,0,0-6.29-1c-0.34.34-.63,0.73-1,1.18a20,20,0,0,1-2.33-1.06,1.45,1.45,0,0,1-.62-1.07c0.19-4.15-2.19-5.82-6.37-4.27l-2-2.66c0.32-.43.62-0.8,0.89-1.19a3.8,3.8,0,0,0-2.38-6,1.74,1.74,0,0,1-1.66-1.93c-0.06-1-.26-1.73,1.09-2.29,3.17-1.31,3.16-4.66,0-7.43l1.26-2.92c4.53,0.73,6.9-2.32,5.12-6.36l2.54-1.95c3.82,3,7.17,1.28,7.67-2.94l3.14-.42c1.8,4.4,5.55,4.82,8.08,1.27,0.63,0.25,1.3.53,2,.77a1.41,1.41,0,0,1,1,1.8c-0.37,3.07,2.19,5.08,5.19,4.28a5.91,5.91,0,0,1,1.94.16Zm-5.06,13.61a12.21,12.21,0,1,0-12.25,12.25A12.17,12.17,0,0,0,264.64,277.2Z" transform="translate(-96.5 -173.62)"/></g><path class="cls-2" d="M269.2,263.09l1.21,2.15c-0.31.45-.69,0.91-1,1.43-1.18,2.06-.4,5,1.86,5.45,2.5,0.52,2.5,2,2.36,3.81-4.23,1.74-4.63,5.5-1.08,8.07a19.3,19.3,0,0,1-1,2.27,1.54,1.54,0,0,1-1.07.68c-4.41.12-5.83,2.11-4.33,6.37l-2.59,2c-0.57-.4-1-0.78-1.56-1.08a3.82,3.82,0,0,0-5.68,2.4c-0.26,1-.42,1.85-1.76,1.82-1.1,0-2,.2-2.56-1.25a3.79,3.79,0,0,0-6.29-1c-0.34.34-.63,0.73-1,1.18a20.07,20.07,0,0,1-2.34-1.06,1.45,1.45,0,0,1-.62-1.07c0.19-4.15-2.19-5.82-6.37-4.27l-2-2.66c0.32-.43.62-0.8,0.89-1.19a3.8,3.8,0,0,0-2.38-6,1.74,1.74,0,0,1-1.66-1.93c-0.06-1-.26-1.73,1.09-2.29,3.17-1.31,3.16-4.66,0-7.44l1.26-2.92c4.53,0.73,6.9-2.32,5.12-6.36l2.54-1.95c3.82,3,7.17,1.28,7.67-2.94l3.14-.42c1.8,4.4,5.55,4.82,8.08,1.27,0.63,0.25,1.29.53,2,.77a1.41,1.41,0,0,1,1,1.8c-0.37,3.07,2.19,5.08,5.19,4.28a5.94,5.94,0,0,1,1.94.16Zm-5.06,13.61A12.21,12.21,0,1,0,251.89,289,12.17,12.17,0,0,0,264.14,276.7Z" transform="translate(-96.5 -173.62)"/><g class="cls-3"><path class="cls-2" d="M263.21,277.37a10.77,10.77,0,1,1-10.6-10.9A10.71,10.71,0,0,1,263.21,277.37Zm-10.68-5.73a5.59,5.59,0,1,0,5.49,5.69A5.53,5.53,0,0,0,252.53,271.65Z" transform="translate(-96.5 -173.62)"/></g><path class="cls-2" d="M262.71,276.88a10.77,10.77,0,1,1-10.6-10.9A10.71,10.71,0,0,1,262.71,276.88ZM252,271.15a5.59,5.59,0,1,0,5.49,5.69A5.53,5.53,0,0,0,252,271.15Z" transform="translate(-96.5 -173.62)"/><g class="cls-3"><path class="cls-2" d="M192.71,305.46c-0.12-1.7-.55-3.25,1.45-4.6,0.84-.57,1-3.24.42-4.54-1.08-2.55-1-3.34,1.62-3.79,2.46-.42,3.66-1.74,3.32-4.34-0.31-2.33.71-3.35,3-2.36,2.52,1.11,4.23.54,5.32-2,1-2.22,2.29-2.49,3.74-.49,1.6,2.22,3.32,2.63,5.57.92,2-1.48,3.13-.87,3.44,1.56,0.34,2.66,1.79,3.89,4.54,3.46,2.37-.37,3.09.94,2.22,2.84-1.23,2.7-.6,4.32,2.07,5.51,1.95,0.87,2.45,2.27.4,3.65-2.29,1.54-2.67,3.26-1,5.54,1.44,2,.86,3.27-1.65,3.57s-3.56,1.75-3.35,4.28-0.94,3.16-3.22,2.21-3.92-.43-4.87,1.8c-1.17,2.76-2.42,2.8-4.15.46-1.42-1.92-3.18-2.07-5.17-.72-2.25,1.52-3.22,1-3.69-1.79-0.4-2.38-1.77-3.39-4.15-3.17s-3.26-.85-2.42-3c1.24-3.25.2-4.79-3.47-5.11Zm18.83,6.7a10.73,10.73,0,1,0-10.7-10.75A10.77,10.77,0,0,0,211.53,312.16Z" transform="translate(-96.5 -173.62)"/></g><path class="cls-2" d="M192.21,305c-0.12-1.7-.55-3.25,1.45-4.6,0.83-.57,1-3.24.42-4.54-1.08-2.55-1-3.34,1.62-3.79,2.46-.42,3.66-1.74,3.32-4.34-0.31-2.33.71-3.35,3-2.36,2.52,1.11,4.23.54,5.32-2,1-2.22,2.29-2.49,3.74-.49,1.6,2.22,3.32,2.63,5.57.92,2-1.48,3.13-.87,3.44,1.56,0.34,2.66,1.79,3.89,4.54,3.46,2.37-.37,3.09.94,2.22,2.84-1.23,2.71-.6,4.32,2.07,5.51,1.95,0.87,2.45,2.27.4,3.65-2.29,1.54-2.67,3.26-1,5.54,1.44,2,.86,3.27-1.65,3.57s-3.56,1.75-3.35,4.28-0.94,3.16-3.22,2.21-3.92-.43-4.87,1.8c-1.17,2.76-2.42,2.8-4.15.46-1.42-1.92-3.18-2.07-5.17-.72-2.25,1.52-3.22,1-3.69-1.79-0.4-2.38-1.77-3.39-4.15-3.17s-3.26-.85-2.42-3c1.24-3.25.2-4.79-3.47-5.11Zm18.83,6.7a10.73,10.73,0,1,0-10.7-10.75A10.77,10.77,0,0,0,211,311.66Z" transform="translate(-96.5 -173.62)"/><g class="cls-3"><path class="cls-2" d="M351.79,425c-0.16-2.26-.73-4.3,1.92-6.1,1.11-.75,1.29-4.3.56-6-1.43-3.37-1.33-4.43,2.14-5,3.26-.56,4.86-2.3,4.39-5.76-0.41-3.09.94-4.44,3.93-3.13,3.34,1.47,5.6.72,7.05-2.62,1.28-2.94,3-3.3,5-.65,2.12,2.94,4.4,3.48,7.39,1.22,2.6-2,4.14-1.15,4.55,2.07,0.45,3.52,2.37,5.15,6,4.58,3.15-.5,4.09,1.25,2.95,3.77-1.63,3.58-.79,5.73,2.75,7.31,2.58,1.15,3.25,3,.53,4.84-3,2-3.53,4.33-1.38,7.34,1.9,2.66,1.14,4.34-2.19,4.73-3.5.42-4.71,2.32-4.44,5.68,0.26,3.18-1.25,4.18-4.27,2.93s-5.2-.57-6.45,2.39c-1.55,3.66-3.21,3.71-5.5.6-1.88-2.55-4.21-2.74-6.85-1-3,2-4.27,1.37-4.89-2.37-0.53-3.16-2.34-4.5-5.5-4.21s-4.32-1.12-3.21-4c1.64-4.31.26-6.35-4.59-6.77Zm24.95,8.88a14.22,14.22,0,1,0-14.18-14.24A14.27,14.27,0,0,0,376.74,433.89Z" transform="translate(-96.5 -173.62)"/></g><path class="cls-2" d="M351.29,424.52c-0.16-2.26-.73-4.3,1.92-6.1,1.11-.75,1.29-4.3.56-6-1.43-3.37-1.33-4.43,2.14-5,3.26-.56,4.86-2.3,4.39-5.76-0.41-3.09.95-4.44,3.93-3.13,3.34,1.47,5.6.72,7.05-2.62,1.28-2.94,3-3.3,5-.65,2.12,2.94,4.4,3.48,7.39,1.22,2.6-2,4.14-1.15,4.56,2.07,0.45,3.52,2.37,5.15,6,4.58,3.15-.5,4.09,1.25,2.95,3.77-1.63,3.58-.8,5.73,2.75,7.3,2.58,1.15,3.25,3,.53,4.84-3,2-3.54,4.33-1.38,7.34,1.9,2.66,1.14,4.34-2.19,4.73-3.5.42-4.71,2.32-4.44,5.68,0.26,3.18-1.25,4.18-4.27,2.93s-5.2-.57-6.45,2.39c-1.55,3.66-3.21,3.71-5.5.61-1.88-2.55-4.21-2.74-6.85-1-3,2-4.27,1.37-4.89-2.37-0.53-3.16-2.34-4.5-5.5-4.21s-4.32-1.12-3.21-4c1.64-4.31.26-6.34-4.59-6.77Zm24.95,8.88a14.22,14.22,0,1,0-14.18-14.24A14.27,14.27,0,0,0,376.24,433.4Z" transform="translate(-96.5 -173.62)"/><g class="cls-3"><path class="cls-2" d="M377,407.12a12.38,12.38,0,0,1,12.42,12.53,12.62,12.62,0,0,1-12.77,12.74,13,13,0,0,1-12.56-12.66A12.66,12.66,0,0,1,377,407.12Zm6.29,12.76a6.35,6.35,0,0,0-6.06-6.63,6.62,6.62,0,0,0-7,6.26,6.84,6.84,0,0,0,6.62,6.76A6.55,6.55,0,0,0,383.32,419.88Z" transform="translate(-96.5 -173.62)"/></g><path class="cls-2" d="M376.54,406.63A12.38,12.38,0,0,1,389,419.15a12.62,12.62,0,0,1-12.77,12.74,13,13,0,0,1-12.56-12.66A12.67,12.67,0,0,1,376.54,406.63Zm6.28,12.76a6.35,6.35,0,0,0-6.06-6.63,6.63,6.63,0,0,0-7,6.26,6.84,6.84,0,0,0,6.62,6.76A6.55,6.55,0,0,0,382.83,419.38Z" transform="translate(-96.5 -173.62)"/><g class="cls-3"><path class="cls-2" d="M318.94,397c0.31-.69.6-1.37,0.94-2a0.61,0.61,0,0,1,.53-0.12,2.78,2.78,0,0,0,3.56-2.48,9.06,9.06,0,0,0-.38-2.09l1.87-1.39a2.87,2.87,0,0,0,5.19-2l2.49-.27a2.86,2.86,0,0,0,2.45,2.54,2.82,2.82,0,0,0,3-1.71l2.33,1a2.65,2.65,0,0,0,.86,3.46,2.83,2.83,0,0,0,3.44,0l1.51,2a2.82,2.82,0,0,0-1,3.42,2.78,2.78,0,0,0,3,1.74c0.09,0.84.18,1.66,0.27,2.51a2.87,2.87,0,0,0-2.55,2.58,2.81,2.81,0,0,0,1.72,2.91l-1,2.3a2.86,2.86,0,0,0-3.61,1.1,2.79,2.79,0,0,0,.13,3.23l-2,1.51a2.89,2.89,0,0,0-3.58-.92c-1,.46-1.51,1.32-1.62,2.93l-2.47.28a2.88,2.88,0,0,0-2.56-2.56,2.82,2.82,0,0,0-2.94,1.72l-2.3-1a2.9,2.9,0,0,0-.92-3.5c-0.94-.73-2-0.72-3.42,0l-1.49-2a2.86,2.86,0,0,0-2-5.17l-0.29-2.49a2.89,2.89,0,0,0,2.58-2.64C320.79,398.66,320.28,397.84,318.94,397Zm5.95,5a8.69,8.69,0,1,0,8.75-8.66A8.67,8.67,0,0,0,324.88,402Z" transform="translate(-96.5 -173.62)"/></g><path class="cls-2" d="M318.44,396.46c0.31-.69.6-1.37,0.94-2a0.62,0.62,0,0,1,.53-0.12,2.78,2.78,0,0,0,3.56-2.48,9.08,9.08,0,0,0-.38-2.09l1.87-1.39a2.87,2.87,0,0,0,5.19-2l2.49-.27a2.86,2.86,0,0,0,2.45,2.54,2.82,2.82,0,0,0,3-1.71l2.33,1a2.65,2.65,0,0,0,.86,3.46,2.83,2.83,0,0,0,3.44,0l1.51,2a2.82,2.82,0,0,0-1,3.42,2.78,2.78,0,0,0,3,1.74l0.27,2.51a2.87,2.87,0,0,0-2.55,2.58,2.81,2.81,0,0,0,1.72,2.91l-1,2.3a2.86,2.86,0,0,0-3.61,1.1,2.79,2.79,0,0,0,.13,3.23l-2,1.51a2.88,2.88,0,0,0-3.58-.92c-1,.46-1.51,1.32-1.62,2.93l-2.47.28a2.88,2.88,0,0,0-2.56-2.56,2.82,2.82,0,0,0-2.94,1.73l-2.3-1a2.9,2.9,0,0,0-.92-3.5c-0.95-.73-2-0.72-3.42,0l-1.49-2a2.86,2.86,0,0,0-2-5.17L317.6,402a2.89,2.89,0,0,0,2.58-2.64C320.29,398.16,319.79,397.34,318.44,396.46Zm5.95,5a8.69,8.69,0,1,0,8.75-8.66A8.68,8.68,0,0,0,324.39,401.5Z" transform="translate(-96.5 -173.62)"/><g class="cls-3"><path class="cls-2" d="M334.74,198.09c0.34-.77.66-1.52,1-2.25a0.69,0.69,0,0,1,.59-0.13,3.08,3.08,0,0,0,3.95-2.75,10,10,0,0,0-.42-2.32l2.07-1.54a3.19,3.19,0,0,0,5.75-2.22l2.76-.3a3.17,3.17,0,0,0,2.72,2.81,3.13,3.13,0,0,0,3.37-1.89l2.58,1.14a2.94,2.94,0,0,0,1,3.84,3.14,3.14,0,0,0,3.81,0l1.67,2.27a3.12,3.12,0,0,0-1.09,3.79,3.08,3.08,0,0,0,3.31,1.92l0.3,2.78a3.18,3.18,0,0,0-2.83,2.86,3.12,3.12,0,0,0,1.91,3.23l-1.12,2.55a3.17,3.17,0,0,0-4,1.22,3.09,3.09,0,0,0,.15,3.58L360,218.33a3.2,3.2,0,0,0-4-1c-1.16.51-1.68,1.47-1.8,3.25l-2.74.31a3.19,3.19,0,0,0-2.84-2.84,3.13,3.13,0,0,0-3.26,1.91l-2.55-1.12a3.21,3.21,0,0,0-1-3.88c-1-.81-2.18-0.8-3.8,0l-1.65-2.23a3.18,3.18,0,0,0-2.22-5.73l-0.32-2.76a3.2,3.2,0,0,0,2.86-2.92C336.79,200,336.23,199.06,334.74,198.09Zm6.59,5.58a9.64,9.64,0,1,0,9.7-9.6A9.62,9.62,0,0,0,341.34,203.67Z" transform="translate(-96.5 -173.62)"/></g><path class="cls-2" d="M334.25,197.59c0.34-.76.66-1.52,1-2.25a0.69,0.69,0,0,1,.59-0.13,3.08,3.08,0,0,0,3.95-2.75,10,10,0,0,0-.42-2.32l2.07-1.54a3.19,3.19,0,0,0,5.75-2.22l2.76-.3a3.17,3.17,0,0,0,2.72,2.81,3.13,3.13,0,0,0,3.37-1.9l2.58,1.14a2.94,2.94,0,0,0,1,3.84,3.14,3.14,0,0,0,3.81,0l1.67,2.27A3.13,3.13,0,0,0,364,198a3.08,3.08,0,0,0,3.31,1.92l0.3,2.78a3.18,3.18,0,0,0-2.83,2.86,3.12,3.12,0,0,0,1.91,3.23l-1.12,2.55a3.17,3.17,0,0,0-4,1.22,3.09,3.09,0,0,0,.15,3.58l-2.24,1.67a3.2,3.2,0,0,0-4-1c-1.16.51-1.67,1.47-1.8,3.25l-2.74.31a3.19,3.19,0,0,0-2.83-2.84,3.14,3.14,0,0,0-3.27,1.91l-2.55-1.12a3.21,3.21,0,0,0-1-3.88c-1-.81-2.18-0.8-3.8,0l-1.65-2.23a3.18,3.18,0,0,0-2.22-5.73l-0.32-2.76a3.2,3.2,0,0,0,2.86-2.92C336.3,199.47,335.74,198.56,334.25,197.59Zm6.59,5.58a9.64,9.64,0,1,0,9.7-9.6A9.62,9.62,0,0,0,340.84,203.18Z" transform="translate(-96.5 -173.62)"/><g class="cls-3"><path class="cls-2" d="M351,212.18a8.47,8.47,0,1,1,8.49-8.46A8.48,8.48,0,0,1,351,212.18Zm-0.07-4a4.44,4.44,0,1,0-4.35-4.54A4.43,4.43,0,0,0,350.88,208.15Z" transform="translate(-96.5 -173.62)"/></g><path class="cls-2" d="M350.46,211.69a8.47,8.47,0,1,1,8.49-8.46A8.48,8.48,0,0,1,350.46,211.69Zm-0.07-4a4.44,4.44,0,1,0-4.35-4.54A4.43,4.43,0,0,0,350.39,207.65Z" transform="translate(-96.5 -173.62)"/><g class="cls-3"><path class="cls-2" d="M222,226.57c0.34-.77.66-1.52,1-2.25a0.68,0.68,0,0,1,.59-0.13,3.08,3.08,0,0,0,3.95-2.75,10,10,0,0,0-.42-2.32l2.07-1.54a3.19,3.19,0,0,0,5.75-2.22l2.76-.3a3.17,3.17,0,0,0,2.72,2.81,3.13,3.13,0,0,0,3.37-1.9l2.58,1.14a2.94,2.94,0,0,0,1,3.84,3.14,3.14,0,0,0,3.81,0l1.67,2.27a3.12,3.12,0,0,0-1.09,3.79,3.08,3.08,0,0,0,3.31,1.93l0.3,2.78a3.18,3.18,0,0,0-2.83,2.86,3.12,3.12,0,0,0,1.91,3.23l-1.12,2.55a3.17,3.17,0,0,0-4,1.22,3.09,3.09,0,0,0,.15,3.58l-2.25,1.67a3.2,3.2,0,0,0-4-1c-1.16.51-1.68,1.47-1.8,3.25l-2.74.31a3.19,3.19,0,0,0-2.83-2.84,3.13,3.13,0,0,0-3.26,1.91l-2.55-1.12a3.21,3.21,0,0,0-1-3.88c-1-.81-2.18-0.8-3.8,0l-1.65-2.23a3.18,3.18,0,0,0-2.22-5.73l-0.32-2.76a3.2,3.2,0,0,0,2.86-2.92C224,228.45,223.49,227.54,222,226.57Zm6.59,5.58a9.64,9.64,0,1,0,9.7-9.6A9.62,9.62,0,0,0,228.59,232.16Z" transform="translate(-96.5 -173.62)"/></g><path class="cls-2" d="M221.5,226.08c0.34-.76.66-1.52,1-2.25a0.69,0.69,0,0,1,.59-0.13,3.08,3.08,0,0,0,3.95-2.75,10,10,0,0,0-.42-2.32l2.07-1.54a3.19,3.19,0,0,0,5.75-2.22l2.76-.3a3.17,3.17,0,0,0,2.72,2.82,3.13,3.13,0,0,0,3.37-1.9l2.58,1.14a2.94,2.94,0,0,0,1,3.84,3.14,3.14,0,0,0,3.81,0l1.67,2.27a3.12,3.12,0,0,0-1.09,3.79,3.08,3.08,0,0,0,3.31,1.92l0.3,2.78a3.18,3.18,0,0,0-2.83,2.86A3.12,3.12,0,0,0,254,237.3l-1.12,2.55a3.17,3.17,0,0,0-4,1.22,3.09,3.09,0,0,0,.15,3.58l-2.24,1.67a3.2,3.2,0,0,0-4-1c-1.16.51-1.68,1.47-1.8,3.25l-2.74.31a3.19,3.19,0,0,0-2.83-2.84,3.13,3.13,0,0,0-3.26,1.91l-2.55-1.13a3.21,3.21,0,0,0-1-3.88c-1-.81-2.18-0.8-3.8,0l-1.65-2.23a3.18,3.18,0,0,0-2.22-5.74l-0.32-2.76a3.2,3.2,0,0,0,2.86-2.92C223.55,228,223,227,221.5,226.08Zm6.59,5.58a9.64,9.64,0,1,0,9.7-9.6A9.62,9.62,0,0,0,228.09,231.66Z" transform="translate(-96.5 -173.62)"/><g class="cls-3"><path class="cls-2" d="M238.21,240.67a8.47,8.47,0,1,1,8.49-8.46A8.48,8.48,0,0,1,238.21,240.67Zm-0.07-4a4.44,4.44,0,1,0-4.35-4.54A4.43,4.43,0,0,0,238.14,236.63Z" transform="translate(-96.5 -173.62)"/></g><path class="cls-2" d="M237.72,240.17a8.47,8.47,0,1,1,8.49-8.46A8.48,8.48,0,0,1,237.72,240.17Zm-0.07-4a4.44,4.44,0,1,0-4.35-4.54A4.43,4.43,0,0,0,237.64,236.13Z" transform="translate(-96.5 -173.62)"/><g class="cls-3"><path class="cls-2" d="M442.22,247.89l0.61,1.09c-0.16.23-.35,0.46-0.5,0.72a1.84,1.84,0,0,0,.94,2.75c1.26,0.26,1.26,1,1.19,1.92-2.13.88-2.34,2.78-.55,4.07a9.6,9.6,0,0,1-.52,1.15,0.78,0.78,0,0,1-.54.34c-2.23.06-2.94,1.06-2.19,3.22l-1.31,1c-0.29-.2-0.53-0.4-0.79-0.54a1.93,1.93,0,0,0-2.87,1.21c-0.13.52-.21,0.93-0.89,0.92a1,1,0,0,1-1.29-.63,1.92,1.92,0,0,0-3.18-.51c-0.17.17-.32,0.37-0.51,0.6a9.9,9.9,0,0,1-1.18-.53,0.73,0.73,0,0,1-.32-0.54c0.1-2.1-1.1-2.94-3.22-2.16l-1-1.34c0.16-.22.31-0.4,0.45-0.6a1.92,1.92,0,0,0-1.2-3,1.17,1.17,0,0,1-.29-2.13c1.6-.66,1.6-2.35,0-3.75l0.64-1.47c2.29,0.37,3.48-1.17,2.58-3.21l1.28-1c1.93,1.51,3.62.64,3.87-1.48l1.59-.21c0.91,2.22,2.81,2.43,4.08.64l1,0.39a0.71,0.71,0,0,1,.51.91,2,2,0,0,0,2.62,2.16,3,3,0,0,1,1,.08Zm-2.55,6.87a6.17,6.17,0,1,0-6.19,6.19A6.15,6.15,0,0,0,439.66,254.76Z" transform="translate(-96.5 -173.62)"/></g><path class="cls-2" d="M441.72,247.39l0.61,1.09c-0.16.23-.35,0.46-0.5,0.72a1.84,1.84,0,0,0,.94,2.75c1.26,0.26,1.26,1,1.19,1.92-2.13.88-2.34,2.78-.55,4.07a9.68,9.68,0,0,1-.52,1.15,0.78,0.78,0,0,1-.54.34c-2.23.06-2.94,1.06-2.19,3.22l-1.31,1c-0.29-.2-0.52-0.4-0.79-0.54a1.93,1.93,0,0,0-2.87,1.21c-0.13.52-.21,0.93-0.89,0.92a1,1,0,0,1-1.29-.63,1.92,1.92,0,0,0-3.18-.51c-0.17.17-.32,0.37-0.51,0.6a10,10,0,0,1-1.18-.54,0.74,0.74,0,0,1-.32-0.54c0.1-2.1-1.11-2.94-3.22-2.16l-1-1.34c0.16-.22.31-0.4,0.45-0.6a1.92,1.92,0,0,0-1.2-3,1.17,1.17,0,0,1-.29-2.13c1.6-.66,1.6-2.35,0-3.75l0.64-1.47c2.29,0.37,3.48-1.17,2.58-3.21l1.28-1c1.93,1.51,3.62.64,3.87-1.48l1.59-.21c0.91,2.22,2.8,2.43,4.08.64l1,0.39a0.71,0.71,0,0,1,.51.91,2,2,0,0,0,2.62,2.16,3,3,0,0,1,1,.08Zm-2.55,6.87a6.17,6.17,0,1,0-6.19,6.19A6.14,6.14,0,0,0,439.17,254.26Z" transform="translate(-96.5 -173.62)"/><g class="cls-3"><path class="cls-2" d="M442.22,328.39l0.61,1.09c-0.16.23-.35,0.46-0.5,0.72a1.84,1.84,0,0,0,.94,2.75c1.26,0.26,1.26,1,1.19,1.92-2.13.88-2.34,2.78-.55,4.07a9.66,9.66,0,0,1-.52,1.15,0.78,0.78,0,0,1-.54.34c-2.23.06-2.94,1.06-2.19,3.22l-1.31,1c-0.29-.2-0.53-0.4-0.79-0.54a1.93,1.93,0,0,0-2.87,1.21c-0.13.52-.21,0.93-0.89,0.92a1,1,0,0,1-1.29-.63,1.92,1.92,0,0,0-3.18-.51c-0.17.17-.32,0.37-0.51,0.6a10,10,0,0,1-1.18-.54,0.73,0.73,0,0,1-.32-0.54c0.1-2.1-1.1-2.94-3.22-2.16l-1-1.34c0.16-.22.31-0.4,0.45-0.6a1.92,1.92,0,0,0-1.2-3,1.17,1.17,0,0,1-.29-2.13c1.6-.66,1.6-2.35,0-3.75l0.64-1.47c2.29,0.37,3.48-1.17,2.58-3.21l1.28-1c1.93,1.51,3.62.64,3.87-1.48l1.59-.21c0.91,2.22,2.81,2.43,4.08.64l1,0.39a0.71,0.71,0,0,1,.51.91,2,2,0,0,0,2.62,2.16,3,3,0,0,1,1,.08Zm-2.55,6.87a6.17,6.17,0,1,0-6.19,6.19A6.15,6.15,0,0,0,439.66,335.26Z" transform="translate(-96.5 -173.62)"/></g><path class="cls-2" d="M441.72,327.9l0.61,1.09c-0.16.23-.35,0.46-0.5,0.72a1.84,1.84,0,0,0,.94,2.75c1.26,0.26,1.26,1,1.19,1.92-2.13.88-2.34,2.78-.55,4.07a9.68,9.68,0,0,1-.52,1.15,0.78,0.78,0,0,1-.54.34c-2.23.06-2.94,1.06-2.19,3.22l-1.31,1c-0.29-.2-0.52-0.4-0.79-0.54a1.93,1.93,0,0,0-2.87,1.21c-0.13.52-.21,0.93-0.89,0.92a1,1,0,0,1-1.29-.63,1.91,1.91,0,0,0-3.18-.51c-0.17.17-.32,0.37-0.51,0.6a10,10,0,0,1-1.18-.54,0.74,0.74,0,0,1-.32-0.54c0.1-2.1-1.11-2.94-3.22-2.16l-1-1.34c0.16-.22.31-0.4,0.45-0.6a1.92,1.92,0,0,0-1.2-3,1.17,1.17,0,0,1-.29-2.13c1.6-.66,1.6-2.35,0-3.75l0.64-1.47c2.29,0.37,3.48-1.17,2.58-3.21l1.28-1c1.93,1.51,3.62.64,3.87-1.48l1.59-.21c0.91,2.22,2.8,2.43,4.08.64l1,0.39a0.71,0.71,0,0,1,.51.91,2,2,0,0,0,2.62,2.16,3,3,0,0,1,1,.08Zm-2.55,6.87A6.17,6.17,0,1,0,433,341,6.14,6.14,0,0,0,439.17,334.77Z" transform="translate(-96.5 -173.62)"/><g class="cls-3"><path class="cls-2" d="M227,251.08l0.89,1.57c-0.23.33-.51,0.67-0.72,1-0.86,1.51-.29,3.64,1.36,4,1.83,0.38,1.82,1.44,1.72,2.78-3.09,1.27-3.38,4-.79,5.89a14.11,14.11,0,0,1-.75,1.66,1.13,1.13,0,0,1-.78.49c-3.22.09-4.26,1.54-3.16,4.66l-1.89,1.44c-0.42-.29-0.76-0.57-1.14-0.79a2.79,2.79,0,0,0-4.15,1.76c-0.19.75-.31,1.35-1.29,1.33-0.8,0-1.43.14-1.87-.91a2.77,2.77,0,0,0-4.6-.73c-0.25.25-.46,0.54-0.74,0.87a14.61,14.61,0,0,1-1.71-.77,1.06,1.06,0,0,1-.46-0.78c0.14-3-1.6-4.25-4.65-3.12l-1.45-1.94c0.24-.31.45-0.58,0.65-0.87a2.78,2.78,0,0,0-1.73-4.39,1.27,1.27,0,0,1-1.22-1.41c0-.7-0.19-1.26.79-1.67,2.32-1,2.31-3.4,0-5.43l0.92-2.13c3.31,0.54,5-1.69,3.74-4.65l1.86-1.42c2.79,2.19,5.24.93,5.6-2.15l2.29-.31c1.31,3.21,4.06,3.52,5.9.92,0.46,0.18.95,0.38,1.44,0.56a1,1,0,0,1,.74,1.31,2.85,2.85,0,0,0,3.79,3.13,4.32,4.32,0,0,1,1.41.11Zm-3.7,9.94a8.92,8.92,0,1,0-8.95,9A8.89,8.89,0,0,0,223.34,261Z" transform="translate(-96.5 -173.62)"/></g><path class="cls-2" d="M226.53,250.59l0.89,1.57c-0.23.33-.51,0.67-0.72,1-0.86,1.51-.29,3.64,1.36,4,1.83,0.38,1.82,1.44,1.72,2.78-3.09,1.27-3.38,4-.79,5.89a14.32,14.32,0,0,1-.75,1.66,1.13,1.13,0,0,1-.78.49c-3.22.09-4.26,1.54-3.16,4.66l-1.89,1.44c-0.42-.29-0.76-0.57-1.14-0.79a2.8,2.8,0,0,0-4.15,1.76c-0.19.75-.31,1.35-1.29,1.33-0.8,0-1.43.14-1.87-.91a2.77,2.77,0,0,0-4.6-.73c-0.25.25-.46,0.53-0.74,0.87a14.53,14.53,0,0,1-1.71-.77,1.06,1.06,0,0,1-.46-0.78c0.14-3-1.6-4.25-4.65-3.12L200.36,269c0.24-.31.45-0.58,0.65-0.87a2.78,2.78,0,0,0-1.74-4.39,1.27,1.27,0,0,1-1.22-1.41c0-.7-0.19-1.26.79-1.67,2.32-1,2.31-3.4,0-5.43l0.92-2.13c3.31,0.54,5-1.69,3.74-4.65l1.86-1.42c2.79,2.19,5.24.93,5.6-2.15l2.29-.31c1.31,3.21,4.06,3.52,5.9.92,0.46,0.18.95,0.38,1.44,0.56a1,1,0,0,1,.74,1.31,2.85,2.85,0,0,0,3.79,3.13,4.33,4.33,0,0,1,1.41.11Zm-3.7,9.94a8.92,8.92,0,1,0-8.95,9A8.89,8.89,0,0,0,222.84,260.53Z" transform="translate(-96.5 -173.62)"/><g class="cls-3"><path class="cls-2" d="M375.84,453.83l0.89,1.57c-0.23.33-.51,0.67-0.72,1-0.86,1.51-.29,3.64,1.36,4,1.83,0.38,1.82,1.45,1.72,2.78-3.08,1.27-3.38,4-.79,5.89a14.06,14.06,0,0,1-.75,1.66,1.12,1.12,0,0,1-.78.49c-3.22.09-4.26,1.54-3.16,4.66l-1.89,1.44c-0.42-.29-0.76-0.57-1.14-0.79a2.8,2.8,0,0,0-4.15,1.75c-0.19.75-.31,1.35-1.29,1.33-0.8,0-1.43.14-1.87-.91a2.77,2.77,0,0,0-4.6-.73c-0.25.25-.46,0.53-0.74,0.86a15.08,15.08,0,0,1-1.71-.77,1.06,1.06,0,0,1-.46-0.79c0.14-3-1.6-4.25-4.65-3.12l-1.45-1.94c0.24-.32.45-0.58,0.65-0.87a2.78,2.78,0,0,0-1.73-4.39,1.27,1.27,0,0,1-1.22-1.41c0-.69-0.19-1.26.79-1.67,2.32-1,2.31-3.4,0-5.43l0.92-2.13c3.31,0.54,5-1.69,3.74-4.65l1.86-1.42c2.79,2.19,5.24.93,5.6-2.15l2.29-.31c1.32,3.21,4.06,3.52,5.9.92,0.46,0.18.95,0.38,1.44,0.56a1,1,0,0,1,.74,1.31,2.85,2.85,0,0,0,3.79,3.13,4.35,4.35,0,0,1,1.41.12Zm-3.7,9.94a8.92,8.92,0,1,0-8.95,9A8.89,8.89,0,0,0,372.15,463.77Z" transform="translate(-96.5 -173.62)"/></g><path class="cls-2" d="M375.35,453.33l0.89,1.57c-0.23.33-.51,0.67-0.72,1-0.86,1.51-.29,3.64,1.36,4,1.83,0.38,1.82,1.45,1.73,2.79-3.09,1.27-3.38,4-.79,5.89a14,14,0,0,1-.75,1.66,1.12,1.12,0,0,1-.78.5c-3.22.09-4.26,1.54-3.16,4.66l-1.89,1.44c-0.42-.29-0.76-0.57-1.14-0.79a2.8,2.8,0,0,0-4.15,1.76c-0.19.75-.31,1.35-1.29,1.33-0.8,0-1.43.14-1.87-.91a2.77,2.77,0,0,0-4.59-.73c-0.25.25-.46,0.53-0.74,0.86a14.46,14.46,0,0,1-1.71-.77,1.06,1.06,0,0,1-.46-0.79c0.14-3-1.6-4.25-4.65-3.12l-1.45-1.94c0.24-.31.46-0.58,0.65-0.87a2.78,2.78,0,0,0-1.74-4.39,1.27,1.27,0,0,1-1.22-1.41c0-.69-0.19-1.26.79-1.67,2.32-1,2.31-3.4,0-5.43l0.92-2.13c3.31,0.54,5-1.69,3.74-4.65l1.86-1.42c2.79,2.19,5.24.93,5.6-2.15l2.29-.31c1.32,3.21,4.06,3.52,5.9.92,0.46,0.18.95,0.38,1.44,0.56a1,1,0,0,1,.74,1.31,2.85,2.85,0,0,0,3.8,3.13,4.35,4.35,0,0,1,1.41.11Zm-3.7,9.94a8.92,8.92,0,1,0-8.95,9A8.89,8.89,0,0,0,371.65,463.27Z" transform="translate(-96.5 -173.62)"/></g><g id="Слой_3" data-name="Слой 3"><text class="cls-4" transform="translate(0.5 376.13)">ТВОЯ БИЗНЕС-ИДЕЯ</text></g></g></svg>